<svg width="109" height="45" viewBox="0 0 109 45" fill="none" xmlns="http://www.w3.org/2000/svg">
<g id="COMICS" filter="url(#filter0_d_14_228)">
<path d="M11.9035 38.8128C9.44809 38.8128 7.44071 37.1804 5.88141 33.9157C4.34003 30.651 3.56934 25.8788 3.56934 19.5991C3.56934 17.2977 3.73064 15.0053 4.05326 12.7218C4.39379 10.4383 4.90461 8.35989 5.58569 6.48669C6.26676 4.59565 7.14499 3.07925 8.22037 1.93749C9.29575 0.795734 10.5772 0.224854 12.0649 0.224854C13.1402 0.224854 14.0543 0.581653 14.8071 1.29525C15.5777 2.00885 16.1602 2.90085 16.5545 3.97125C16.9489 5.04166 17.146 6.12989 17.146 7.23597C17.146 8.12797 17.0116 8.80589 16.7427 9.26973C16.4739 9.71573 16.0527 9.93873 15.4792 9.93873C14.8877 9.93873 14.4576 9.72465 14.1887 9.29649C13.9378 8.86833 13.8123 8.27069 13.8123 7.50357C13.8123 6.96837 13.9019 6.50453 14.0812 6.11205C14.2604 5.70173 14.4307 5.29141 14.592 4.88109C14.7712 4.47077 14.8608 3.98909 14.8608 3.43605C14.8608 2.81165 14.6368 2.24077 14.1887 1.72341C13.7586 1.20605 13.2657 0.947371 12.7101 0.947371C12.029 0.947371 11.4196 1.37553 10.8819 2.23185C10.3622 3.07033 9.91408 4.17641 9.5377 5.55009C9.16131 6.92377 8.84766 8.44017 8.59674 10.0993C8.36374 11.7406 8.19347 13.3908 8.08594 15.0499C7.9784 16.6912 7.92462 18.1897 7.92462 19.5456C7.92462 21.3653 7.9784 23.176 8.08594 24.9779C8.2114 26.7619 8.39062 28.4477 8.62362 30.0355C8.87454 31.6054 9.17924 33.0059 9.5377 34.2368C9.89616 35.4499 10.3084 36.4044 10.7744 37.1001C11.2583 37.7959 11.796 38.1438 12.3875 38.1438C13.0865 38.1438 13.7406 37.8762 14.35 37.341C14.9773 36.8058 15.5061 36.1546 15.9362 35.3875C16.3843 34.6204 16.689 33.8979 16.8503 33.2199L17.4417 33.5678C17.1191 34.4955 16.689 35.3607 16.1513 36.1635C15.6315 36.9485 15.0132 37.5907 14.2963 38.0903C13.5973 38.5719 12.7997 38.8128 11.9035 38.8128Z" fill="white"/>
<path d="M28.0687 38.8663C26.4556 38.8663 25.0487 38.0635 23.8478 36.4579C22.647 34.8345 21.715 32.5866 21.0518 29.7144C20.3887 26.8243 20.0571 23.4525 20.0571 19.5991C20.0571 15.7278 20.3887 12.3471 21.0518 9.45706C21.715 6.54913 22.647 4.28345 23.8478 2.66001C25.0487 1.03657 26.4556 0.224854 28.0687 0.224854C29.7176 0.224854 31.1425 1.03657 32.3433 2.66001C33.5621 4.28345 34.503 6.54913 35.1662 9.45706C35.8473 12.3471 36.1878 15.7278 36.1878 19.5991C36.1878 23.4525 35.8473 26.8243 35.1662 29.7144C34.503 32.5866 33.5621 34.8345 32.3433 36.4579C31.1425 38.0635 29.7176 38.8663 28.0687 38.8663ZM28.0687 38.3311C28.8035 38.3311 29.4039 37.8673 29.8699 36.9396C30.3539 35.9941 30.7392 34.6739 31.026 32.9791C31.3307 31.2843 31.5457 29.2951 31.6712 27.0116C31.7967 24.7281 31.8594 22.2573 31.8594 19.5991C31.8594 16.9409 31.7967 14.4701 31.6712 12.1866C31.5457 9.88521 31.3307 7.88713 31.026 6.19233C30.7392 4.47969 30.3539 3.15061 29.8699 2.20509C29.4039 1.24173 28.8035 0.760052 28.0687 0.760052C27.3697 0.760052 26.7782 1.24173 26.2943 2.20509C25.8283 3.15061 25.4519 4.47969 25.1652 6.19233C24.8963 7.88713 24.6992 9.88521 24.5737 12.1866C24.4482 14.4701 24.3855 16.9409 24.3855 19.5991C24.3855 22.2573 24.4482 24.7281 24.5737 27.0116C24.6992 29.2951 24.8963 31.2843 25.1652 32.9791C25.4519 34.6739 25.8283 35.9941 26.2943 36.9396C26.7782 37.8673 27.3697 38.3311 28.0687 38.3311Z" fill="white"/>
<path d="M38.7746 38.2776V37.7424H41.2211V1.34877H38.7746V0.813573H45.8452L50.1198 27.7609H49.8241L54.8515 0.813573H61.5458V1.34877H59.0186V37.7424H61.5458V38.2776H52.7545V37.7424H54.9859V1.72341H55.2279L48.5337 38.2776H47.754L41.5706 1.24173L41.7588 1.26849V37.7424H44.4741V38.2776H38.7746Z" fill="white"/>
<path d="M64.427 38.2776V37.7424H66.981V1.34877H64.427V0.813573H73.5946V1.34877H70.9868V37.7424H73.5946V38.2776H64.427Z" fill="white"/>
<path d="M84.4182 38.8128C81.9627 38.8128 79.9553 37.1804 78.396 33.9157C76.8547 30.651 76.084 25.8788 76.084 19.5991C76.084 17.2977 76.2453 15.0053 76.5679 12.7218C76.9084 10.4383 77.4192 8.35989 78.1003 6.48669C78.7814 4.59565 79.6596 3.07925 80.735 1.93749C81.8104 0.795734 83.0919 0.224854 84.5795 0.224854C85.6549 0.224854 86.5689 0.581653 87.3217 1.29525C88.0924 2.00885 88.6749 2.90085 89.0692 3.97125C89.4635 5.04166 89.6606 6.12989 89.6606 7.23597C89.6606 8.12797 89.5262 8.80589 89.2574 9.26973C88.9885 9.71573 88.5673 9.93873 87.9938 9.93873C87.4023 9.93873 86.9722 9.72465 86.7034 9.29649C86.4524 8.86833 86.327 8.27069 86.327 7.50357C86.327 6.96837 86.4166 6.50453 86.5958 6.11205C86.775 5.70173 86.9453 5.29141 87.1066 4.88109C87.2858 4.47077 87.3755 3.98909 87.3755 3.43605C87.3755 2.81165 87.1514 2.24077 86.7034 1.72341C86.2732 1.20605 85.7803 0.947371 85.2247 0.947371C84.5436 0.947371 83.9342 1.37553 83.3966 2.23185C82.8768 3.07033 82.4287 4.17641 82.0523 5.55009C81.6759 6.92377 81.3623 8.44017 81.1114 10.0993C80.8784 11.7406 80.7081 13.3908 80.6006 15.0499C80.493 16.6912 80.4392 18.1897 80.4392 19.5456C80.4392 21.3653 80.493 23.176 80.6006 24.9779C80.726 26.7619 80.9053 28.4477 81.1382 30.0355C81.3892 31.6054 81.6939 33.0059 82.0523 34.2368C82.4108 35.4499 82.823 36.4044 83.289 37.1001C83.7729 37.7959 84.3106 38.1438 84.9021 38.1438C85.6011 38.1438 86.2553 37.8762 86.8646 37.341C87.492 36.8058 88.0207 36.1546 88.4508 35.3875C88.8989 34.6204 89.2036 33.8979 89.3649 33.2199L89.9564 33.5678C89.6338 34.4955 89.2036 35.3607 88.6659 36.1635C88.1462 36.9485 87.5278 37.5907 86.8109 38.0903C86.1119 38.5719 85.3143 38.8128 84.4182 38.8128Z" fill="white"/>
<path d="M99.1047 39.0001C98.4415 39.0001 97.8321 38.9109 97.2765 38.7325C96.7209 38.5719 96.2191 38.3846 95.771 38.1705C95.3229 37.9565 94.9376 37.7691 94.615 37.6086C94.2923 37.4302 94.0235 37.341 93.8084 37.341C93.4858 37.341 93.3245 37.6532 93.3245 38.2776H92.8406V30.1158H93.3783C93.4141 30.7223 93.5306 31.4003 93.7278 32.1495C93.9249 32.881 94.1937 33.6124 94.5343 34.3439C94.8748 35.0753 95.2781 35.7443 95.7441 36.3509C96.2101 36.9574 96.7209 37.448 97.2765 37.8227C97.8501 38.1973 98.4594 38.3846 99.1047 38.3846C100.162 38.3846 100.978 38.1081 101.551 37.5551C102.125 36.9842 102.519 36.2438 102.734 35.334C102.949 34.4241 103.057 33.4519 103.057 32.4171C103.057 31.1505 102.788 29.8571 102.25 28.5369C101.73 27.1989 101.058 25.8609 100.234 24.5229C99.4093 23.1849 98.5401 21.8915 97.626 20.6427C96.3176 18.7874 95.296 17.155 94.5612 15.7457C93.8443 14.3363 93.3424 13.0518 93.0556 11.8922C92.7689 10.7148 92.6255 9.55517 92.6255 8.41341C92.6255 6.61157 92.9212 5.10409 93.5127 3.89097C94.1221 2.66001 94.9017 1.74125 95.8516 1.13469C96.8016 0.528133 97.8142 0.224854 98.8896 0.224854C99.6961 0.224854 100.404 0.340813 101.013 0.572733C101.623 0.786812 102.134 1.00981 102.546 1.24173C102.976 1.47365 103.308 1.58961 103.541 1.58961C103.72 1.58961 103.845 1.53609 103.917 1.42905C104.007 1.32201 104.06 1.11685 104.078 0.813573H104.562V8.89509H104.025C103.971 8.12797 103.827 7.28949 103.594 6.37965C103.379 5.45197 103.066 4.56889 102.653 3.73041C102.241 2.87409 101.721 2.17833 101.094 1.64313C100.485 1.09009 99.7678 0.813573 98.9434 0.813573C97.9934 0.813573 97.16 1.21497 96.4431 2.01777C95.7441 2.80273 95.3946 4.09613 95.3946 5.89797C95.3946 6.96837 95.5559 8.03877 95.8785 9.10917C96.2011 10.1796 96.7209 11.3303 97.4378 12.5612C98.1727 13.7922 99.1316 15.2015 100.314 16.7893C101.372 18.1451 102.322 19.5367 103.164 20.9639C104.025 22.3732 104.706 23.8183 105.207 25.299C105.709 26.7797 105.96 28.3229 105.96 29.9285C105.96 31.3378 105.781 32.6045 105.423 33.7284C105.064 34.8523 104.571 35.8067 103.944 36.5917C103.317 37.3767 102.582 37.9743 101.739 38.3846C100.915 38.7949 100.037 39.0001 99.1047 39.0001Z" fill="white"/>
</g>
<defs>
<filter id="filter0_d_14_228" x="0.616954" y="0.224854" width="108.296" height="44.68" filterUnits="userSpaceOnUse" color-interpolation-filters="sRGB">
<feFlood flood-opacity="0" result="BackgroundImageFix"/>
<feColorMatrix in="SourceAlpha" type="matrix" values="0 0 0 0 0 0 0 0 0 0 0 0 0 0 0 0 0 0 127 0" result="hardAlpha"/>
<feOffset dy="2.95238"/>
<feGaussianBlur stdDeviation="1.47619"/>
<feComposite in2="hardAlpha" operator="out"/>
<feColorMatrix type="matrix" values="0 0 0 0 0 0 0 0 0 0 0 0 0 0 0 0 0 0 0.45 0"/>
<feBlend mode="normal" in2="BackgroundImageFix" result="effect1_dropShadow_14_228"/>
<feBlend mode="normal" in="SourceGraphic" in2="effect1_dropShadow_14_228" result="shape"/>
</filter>
</defs>
</svg>
